<svg width="50" height="55" viewBox="0 0 50 55" fill="none" xmlns="http://www.w3.org/2000/svg">
<g clip-path="url(#clip0_1_249)">
<path d="M27.0453 8.27224C26.3696 8.20868 25.6848 8.18144 25 8.18144C12.8013 8.18144 2.91271 18.0155 2.91271 30.1469C2.91271 33.5067 3.67056 36.6848 5.02191 39.527C4.13623 40.0083 3.35099 40.653 2.71183 41.4157C0.976991 38.0378 0 34.2059 0 30.1469C0 16.4083 11.1943 5.28479 25 5.28479C25.5478 5.28479 26.0866 5.30295 26.6253 5.33927C26.6253 5.43008 26.6253 5.52088 26.6253 5.61168C26.6253 6.53789 26.7805 7.43685 27.0544 8.27224" fill="#0189BF"/>
<path d="M50 30.1469C50 43.8765 38.8057 55.0091 25 55.0091C21.2199 55.0091 17.6315 54.1737 14.4175 52.6754C15.1662 52.0126 15.7871 51.2135 16.2436 50.3145C18.9281 51.4677 21.8864 52.1124 25 52.1124C37.1987 52.1124 47.0873 42.2784 47.0873 30.1469C47.0873 23.2912 43.9281 17.171 38.9792 13.1394C39.874 12.6853 40.6867 12.0679 41.3532 11.3414C46.649 15.8998 50 22.6375 50 30.1469Z" fill="#0189BF"/>
<path d="M10.0712 25.3979H8.26331V46.8367H10.0712V25.3979Z" fill="#0189BF"/>
<path d="M34.7699 36.9482L31.4554 35.577C29.9763 34.9686 28.488 34.3512 27.0088 33.7428L8.82031 26.2333L9.51425 24.5716L27.7027 32.0811C29.1819 32.6894 30.6611 33.3069 32.1494 33.9153L35.4638 35.2864L34.7699 36.9482Z" fill="#0189BF"/>
<path d="M36.0117 5.61169H34.2038V36.1218H36.0117V5.61169Z" fill="#0189BF"/>
<path d="M40.7506 5.61169C40.7506 7.17352 40.1114 8.58098 39.0796 9.59799C38.2761 10.388 37.2352 10.9419 36.0756 11.1417C35.7652 11.1961 35.4456 11.2234 35.1169 11.2234C33.2268 11.2234 31.5559 10.2972 30.5332 8.88063C29.885 7.98167 29.4923 6.87386 29.4832 5.68433V5.61169C29.4832 2.51527 32.0124 0 35.126 0C38.2396 0 40.7688 2.51527 40.7688 5.61169" fill="#0189BF"/>
<path d="M43.508 36.1128C43.508 40.7256 39.7462 44.4667 35.1078 44.4667C30.4693 44.4667 26.7075 40.7256 26.7075 36.1128C26.7075 34.9777 26.9357 33.8971 27.3466 32.9074C28.6067 29.8836 31.6107 27.7588 35.1078 27.7588C39.7462 27.7588 43.508 31.4999 43.508 36.1128Z" fill="#0189BF"/>
<path d="M12.7922 25.3979C12.7922 25.8882 12.6917 26.3604 12.5183 26.7781C11.9704 28.0857 10.683 29.0028 9.16727 29.0028C7.1585 29.0028 5.54236 27.3865 5.54236 25.3979C5.54236 23.4093 7.16763 21.793 9.16727 21.793C11.1669 21.793 12.7922 23.4093 12.7922 25.3979Z" fill="#0189BF"/>
<path d="M14.9927 46.8458C14.9927 47.772 14.7736 48.6437 14.3901 49.4156C13.9427 50.3145 13.267 51.0863 12.4361 51.6493C11.5048 52.2759 10.3817 52.6482 9.16728 52.6482C5.95325 52.6482 3.34186 50.0512 3.34186 46.8549C3.34186 45.7743 3.64317 44.7573 4.16363 43.8947C4.68408 43.032 5.41454 42.3238 6.28196 41.8243C7.13112 41.3431 8.11724 41.0616 9.16728 41.0616C12.3813 41.0616 14.9927 43.6586 14.9927 46.8549" fill="#0189BF"/>
</g>
<defs>
<clipPath id="clip0_1_249">
<rect width="50" height="55" fill="white"/>
</clipPath>
</defs>
</svg>
