<svg width="59" height="59" viewBox="0 0 59 59" fill="none" xmlns="http://www.w3.org/2000/svg">
<g clip-path="url(#clip0_1_129)">
<path d="M28.2915 12.6916C25.1301 9.53024 18.4389 3.95175 15.4464 1.48862C14.4718 0.682924 13.2825 0.191832 12.0317 0.0613864L11.4102 0C11.556 1.43491 12.1852 2.77773 13.1904 3.81363L24.8768 15.8761C25.1531 16.16 25.1531 16.6204 24.8692 16.9043C24.5853 17.1882 24.1249 17.1882 23.8409 16.9043L11.7171 4.97997C10.827 4.10522 9.69138 3.5067 8.46365 3.26115L7.32033 3.03095L7.51216 4.0515C7.73469 5.26388 8.30251 6.38419 9.14657 7.28196L20.9021 19.8278C21.1706 20.1194 21.163 20.5644 20.8867 20.8484L20.8484 20.8867C20.5721 21.163 20.1194 21.1706 19.8278 20.9021L7.28196 9.14657C6.38419 8.30251 5.26388 7.73469 4.0515 7.51216L3.03095 7.32033L3.26115 8.46365C3.5067 9.69138 4.10522 10.8194 4.97997 11.7171L16.9043 23.8409C17.1882 24.1249 17.1805 24.5853 16.9043 24.8692C16.6204 25.1531 16.1676 25.1531 15.8761 24.8768L3.81363 13.1904C2.77773 12.1852 1.43491 11.5637 0 11.4102L0.0613864 12.0317C0.191832 13.2902 0.690597 14.4718 1.48862 15.4464C3.95175 18.4389 9.53024 25.1377 12.6916 28.2915C16.8275 32.4274 28.7442 32.4274 28.7442 32.4274L38.612 43.5076L39.8398 42.2799L42.2799 39.8398L43.5076 38.612L32.4274 28.7442C32.4274 28.7442 32.4274 16.8352 28.2915 12.6916Z" fill="#EC671B"/>
<path d="M51.5876 15.7763C45.3722 9.56093 36.7321 7.25894 28.7135 8.85498C29.358 9.4535 29.9566 10.0213 30.463 10.5278C32.4427 12.5075 33.6474 15.6535 34.3764 18.7842C37.9675 18.953 41.5049 20.388 44.2443 23.1273C50.076 28.959 50.076 38.4202 44.2443 44.2519C38.4125 50.0836 28.9514 50.0836 23.1197 44.2519C20.3803 41.5125 18.9454 37.9752 18.7766 34.3841C15.6459 33.6551 12.5075 32.4581 10.5201 30.4707C10.0137 29.9642 9.44584 29.3657 8.84732 28.7212C7.25127 36.7398 9.56094 45.3799 15.7686 51.5953C24.4241 60.2507 37.791 61.3327 47.6205 54.8334L50.943 58.1559C51.9866 59.1995 53.6671 59.1995 54.7106 58.1559L57.6802 55.1864C58.7238 54.1428 58.7238 52.4623 57.6802 51.4188L54.4344 48.173C61.3404 38.2974 60.3889 24.6006 51.5723 15.784L51.5876 15.7763Z" fill="#EC671B"/>
</g>
<defs>
<clipPath id="clip0_1_129">
<rect width="59" height="59" fill="white"/>
</clipPath>
</defs>
</svg>
