<svg width="55" height="55" viewBox="0 0 55 55" fill="none" xmlns="http://www.w3.org/2000/svg">
<g clip-path="url(#clip0_1_193)">
<path d="M27.4944 47.0325C38.285 47.0325 47.0325 38.285 47.0325 27.4944C47.0325 16.7038 38.285 7.95625 27.4944 7.95625C16.7038 7.95625 7.95624 16.7038 7.95624 27.4944C7.95624 38.285 16.7038 47.0325 27.4944 47.0325Z" stroke="#EB5B1D" stroke-width="1.42" stroke-miterlimit="10"/>
<path d="M46.4171 22.6043C46.4171 22.6043 43.0153 22.9736 40.9451 22.235C38.8749 21.4964 36.3011 21.821 35.1373 24.6409C33.9736 27.4608 35.7976 29.5422 38.5392 29.6205C41.2808 29.6989 42.1872 32.1943 41.1129 34.354C40.0387 36.5137 40.7772 36.8383 41.4486 37.588C42.1201 38.3377 42.7691 39.9268 41.5493 41.0905" stroke="#EB5B1D" stroke-width="1.42" stroke-miterlimit="10"/>
<path d="M34.7792 9.35503C34.7792 9.35503 30.9857 14.8382 32.2279 16.4161C33.47 17.9939 36.4578 14.178 37.9573 14.9278C39.4567 15.6775 41.2024 16.0804 42.7355 15.2523" stroke="#EB5B1D" stroke-width="1.42" stroke-miterlimit="10"/>
<path d="M22.8616 8.50458C22.8616 8.50458 27.3601 16.4944 22.8616 17.6582C18.3632 18.822 16.707 18.9003 16.707 19.8179C16.707 20.7355 19.2136 22.47 20.7803 22.7274C22.3469 22.9847 23.8352 23.4771 24.2492 24.7976C24.6633 26.118 25.9054 26.0397 27.8189 26.0397C29.7324 26.0397 31.4669 28.0315 28.4791 31.4781C25.4913 34.9247 25.413 35.1709 25.413 36.4914C25.413 37.8118 25.1668 38.7294 24.3388 39.1434C23.5107 39.5575 22.9512 40.2625 22.7274 41.5046C22.5036 42.7467 22.0112 43.4181 20.6012 43.4181C19.1912 43.4181 18.6877 41.762 18.6877 39.4344C18.6877 37.1068 19.2696 33.9176 17.7701 32.6755C16.2706 31.4334 15.0285 29.9339 15.2859 26.9461C15.5432 23.9583 15.4537 23.2757 13.9542 21.8769C12.4547 20.4781 10.0824 18.587 10.0824 18.587" stroke="#EB5B1D" stroke-width="1.42" stroke-miterlimit="10"/>
<path d="M27.4944 55V50.9044" stroke="#EB5B1D" stroke-width="1.42" stroke-miterlimit="10"/>
<path d="M0 27.4944H4.09563" stroke="#EB5B1D" stroke-width="1.42" stroke-miterlimit="10"/>
<path d="M55 27.4944H50.9044" stroke="#EB5B1D" stroke-width="1.42" stroke-miterlimit="10"/>
<path d="M8.05695 46.943L10.9552 44.0448" stroke="#EB5B1D" stroke-width="1.42" stroke-miterlimit="10"/>
<path d="M46.943 8.05697L44.0447 10.9552" stroke="#EB5B1D" stroke-width="1.42" stroke-miterlimit="10"/>
<path d="M8.05695 8.05697L10.9552 10.9552" stroke="#EB5B1D" stroke-width="1.42" stroke-miterlimit="10"/>
<path d="M46.943 46.943L44.0447 44.0448" stroke="#EB5B1D" stroke-width="1.42" stroke-miterlimit="10"/>
<path d="M27.4944 55V50.9044" stroke="#EB5B1D" stroke-width="1.42" stroke-miterlimit="10"/>
<path d="M0 27.4944H4.09563" stroke="#EB5B1D" stroke-width="1.42" stroke-miterlimit="10"/>
<path d="M55 27.4944H50.9044" stroke="#EB5B1D" stroke-width="1.42" stroke-miterlimit="10"/>
<path d="M8.05695 46.943L10.9552 44.0448" stroke="#EB5B1D" stroke-width="1.42" stroke-miterlimit="10"/>
<path d="M46.943 8.05697L44.0447 10.9552" stroke="#EB5B1D" stroke-width="1.42" stroke-miterlimit="10"/>
<path d="M8.05695 8.05697L10.9552 10.9552" stroke="#EB5B1D" stroke-width="1.42" stroke-miterlimit="10"/>
<path d="M46.943 46.943L44.0447 44.0448" stroke="#EB5B1D" stroke-width="1.42" stroke-miterlimit="10"/>
<path d="M31.8027 54.6531L31.1536 50.6134" stroke="#EB5B1D" stroke-width="1.42" stroke-miterlimit="10"/>
<path d="M0.335693 31.8026L4.38656 31.1536" stroke="#EB5B1D" stroke-width="1.42" stroke-miterlimit="10"/>
<path d="M54.6531 23.1974L50.6134 23.8352" stroke="#EB5B1D" stroke-width="1.42" stroke-miterlimit="10"/>
<path d="M11.3357 49.7406L13.7416 46.4283" stroke="#EB5B1D" stroke-width="1.42" stroke-miterlimit="10"/>
<path d="M43.6643 5.24822L41.2584 8.56053" stroke="#EB5B1D" stroke-width="1.42" stroke-miterlimit="10"/>
<path d="M5.24823 11.3357L8.56054 13.7416" stroke="#EB5B1D" stroke-width="1.42" stroke-miterlimit="10"/>
<path d="M49.7406 43.6643L46.4283 41.2584" stroke="#EB5B1D" stroke-width="1.42" stroke-miterlimit="10"/>
<path d="M35.999 53.646L34.7345 49.7518" stroke="#EB5B1D" stroke-width="1.42" stroke-miterlimit="10"/>
<path d="M1.34283 35.999L5.23704 34.7345" stroke="#EB5B1D" stroke-width="1.42" stroke-miterlimit="10"/>
<path d="M53.646 19.001L49.7518 20.2655" stroke="#EB5B1D" stroke-width="1.42" stroke-miterlimit="10"/>
<path d="M15.0173 52.001L16.8749 48.353" stroke="#EB5B1D" stroke-width="1.42" stroke-miterlimit="10"/>
<path d="M2.99896 15.0173L6.64698 16.8749" stroke="#EB5B1D" stroke-width="1.42" stroke-miterlimit="10"/>
<path d="M52.001 39.9827L48.353 38.1251" stroke="#EB5B1D" stroke-width="1.42" stroke-miterlimit="10"/>
<path d="M39.9827 52.001L38.1251 48.353" stroke="#EB5B1D" stroke-width="1.42" stroke-miterlimit="10"/>
<path d="M2.99896 39.9827L6.64698 38.1251" stroke="#EB5B1D" stroke-width="1.42" stroke-miterlimit="10"/>
<path d="M52.001 15.0173L48.353 16.8749" stroke="#EB5B1D" stroke-width="1.42" stroke-miterlimit="10"/>
<path d="M19.001 53.646L20.2655 49.7518" stroke="#EB5B1D" stroke-width="1.42" stroke-miterlimit="10"/>
<path d="M1.34283 19.001L5.23704 20.2655" stroke="#EB5B1D" stroke-width="1.42" stroke-miterlimit="10"/>
<path d="M53.646 35.999L49.7518 34.7345" stroke="#EB5B1D" stroke-width="1.42" stroke-miterlimit="10"/>
<path d="M43.6643 49.7406L41.2584 46.4283" stroke="#EB5B1D" stroke-width="1.42" stroke-miterlimit="10"/>
<path d="M11.3357 5.24822L13.7416 8.56053" stroke="#EB5B1D" stroke-width="1.42" stroke-miterlimit="10"/>
<path d="M5.24823 43.6643L8.56054 41.2584" stroke="#EB5B1D" stroke-width="1.42" stroke-miterlimit="10"/>
<path d="M49.7406 11.3357L46.4283 13.7416" stroke="#EB5B1D" stroke-width="1.42" stroke-miterlimit="10"/>
<path d="M23.1973 54.6531L23.8352 50.6134" stroke="#EB5B1D" stroke-width="1.42" stroke-miterlimit="10"/>
<path d="M0.335693 23.1974L4.38656 23.8352" stroke="#EB5B1D" stroke-width="1.42" stroke-miterlimit="10"/>
<path d="M54.6531 31.8026L50.6134 31.1536" stroke="#EB5B1D" stroke-width="1.42" stroke-miterlimit="10"/>
<path d="M27.4944 0V4.09563" stroke="#EB5B1D" stroke-width="1.42" stroke-miterlimit="10"/>
<path d="M27.4944 0V4.09563" stroke="#EB5B1D" stroke-width="1.42" stroke-miterlimit="10"/>
<path d="M23.1973 0.335709L23.8352 4.38657" stroke="#EB5B1D" stroke-width="1.42" stroke-miterlimit="10"/>
<path d="M19.001 1.34283L20.2655 5.23703" stroke="#EB5B1D" stroke-width="1.42" stroke-miterlimit="10"/>
<path d="M39.9827 2.99899L38.1251 6.647" stroke="#EB5B1D" stroke-width="1.42" stroke-miterlimit="10"/>
<path d="M15.0173 2.99899L16.8749 6.647" stroke="#EB5B1D" stroke-width="1.42" stroke-miterlimit="10"/>
<path d="M35.999 1.34283L34.7345 5.23703" stroke="#EB5B1D" stroke-width="1.42" stroke-miterlimit="10"/>
<path d="M11.3357 5.24822L13.7416 8.56053" stroke="#EB5B1D" stroke-width="1.42" stroke-miterlimit="10"/>
<path d="M31.8027 0.335709L31.1536 4.38657" stroke="#EB5B1D" stroke-width="1.42" stroke-miterlimit="10"/>
</g>
<defs>
<clipPath id="clip0_1_193">
<rect width="55" height="55" fill="white"/>
</clipPath>
</defs>
</svg>
