<svg width="56" height="27" viewBox="0 0 56 27" fill="none" xmlns="http://www.w3.org/2000/svg">
<g clip-path="url(#clip0_1_273)">
<path d="M54.83 12.31L42.57 0H2.11C0.95 0 0 0.95 0 2.11V5.5H24.05V7.27H0V12.3H24.05V14.07H0V19.1H24.05V20.87H0V24.81C0 25.98 0.95 26.92 2.11 26.92H42.56L54.82 14.61C55.46 13.97 55.46 12.94 54.82 12.3L54.83 12.31ZM42.34 17.85C39.77 17.85 37.68 15.77 37.68 13.19C37.68 10.61 39.76 8.53 42.34 8.53C44.92 8.53 47 10.61 47 13.19C47 15.77 44.92 17.85 42.34 17.85Z" fill="#EB5B1D"/>
</g>
<defs>
<clipPath id="clip0_1_273">
<rect width="55.3" height="26.94" fill="white"/>
</clipPath>
</defs>
</svg>
