<svg width="153" height="33" viewBox="0 0 153 33" fill="none" xmlns="http://www.w3.org/2000/svg">
<path d="M19.1 5.3L20.3 0H0V32.1H5.5V18.2H16.1L17.3 12.9H5.5V5.3H19.1Z" fill="#EC671B"/>
<path d="M20.4 32.1H25.7V8H20.4V32.1Z" fill="#EC671B"/>
<path d="M41.4 26.2C41.2 26.5 40.8 26.8 40.2 27.1C39.4 27.4 38.4 27.6 37 27.6C37 27.6 32.5 27.5 30.3 24.7L27.2 28.8C30.8 32.6 37.3 32.6 37.3 32.6C38.9 32.6 40.4 32.4 41.6 32C42.8 31.6 43.9 31 44.7 30.3C45.6 29.6 46.2 28.7 46.6 27.8C47 26.9 47.2 25.9 47.2 24.9C47.2 23.9 47 22.9 46.6 22.1C46.2 21.2 45.6 20.4 44.9 19.8C44.2 19.2 43.3 18.7 42.2 18.2C41.2 17.8 40 17.4 38.6 17.1C37.9 16.9 37.1 16.8 36.4 16.5C35.8 16.3 35.3 16.1 34.8 15.8C34.4 15.6 34.1 15.3 33.9 15C33.8 15 33.7 14.7 33.7 14.4C33.7 14.4 33.8 12.1 37.7 12.3C37.7 12.3 41.4 12.4 44 14.8L46.9 10.5C40.3 5.60005 33.3 8.00005 33.3 8.00005C31.9 8.50005 30.7 9.30005 29.8 10.5C28.9 11.6 28.4 13.1 28.4 14.5C28.4 15.6 28.6 16.7 29.1 17.5C29.5 18.4 30.2 19.1 31 19.7C31.8 20.3 32.7 20.8 33.7 21.1C34.7 21.5 35.8 21.8 37 22.1C37.8 22.3 38.6 22.5 39.4 22.8C39.5 22.8 43.2 23.6 41.4 26.2Z" fill="#EC671B"/>
<path d="M69.7 14.2C69.5 13.2 69.1 12.1 68.5 11C67.8 9.9 66.8 8.9 65.4 8.3C64.1 7.7 62.4 7.4 60.4 7.4C59.3 7.4 58.3 7.5 57.2 7.8C56.2 8.1 55.3 8.4 54.5 8.8V0H49.2V32.1H54.5V14.8C54.6 14.7 54.8 14.5 55.1 14.3C55.4 14 56 13.6 57.3 13.1C58.3 12.7 59.3 12.5 60.5 12.5C61.4 12.5 62.3 12.7 63 13C63.6 13.3 64 13.7 64.3 14.3C64.6 15 64.8 15.9 64.8 17V32.1H70.1V16.8C69.9 16 69.8 15.2 69.7 14.2Z" fill="#EC671B"/>
<path d="M85.4 27L84.1 27.4001C84.1 27.4001 83.9 27.5 83.4 27.5C83.2 27.5 82.6 27.6 81.6 27.6C81 27.6 80.4 27.5 79.9 27.3C79.4 27.1 79 26.8 78.6 26.5C78.2 26.1 77.9 25.6 77.7 25C77.5 24.4 77.4 23.6 77.4 22.8V13H84.5L85.7 8.00005H77.4V2.80005H72.1V22.9001C72.1 24.3001 72.3 25.7001 72.7 26.9001C73.1 28.1001 73.8 29.2001 74.6 30C75.4 30.9 76.4 31.6 77.6 32C78.7 32.5 80 32.7001 81.4 32.7001C82.5 32.7001 83.3 32.7 83.9 32.6C84.6 32.5 85 32.4 85.4 32.3L86.5 32L85.4 27Z" fill="#EC671B"/>
<path d="M101.9 27.3C101.6 27.4 101.3 27.5 100.9 27.5C100.1 27.7 98.9 27.7 97.4 27.7C96.3 27.7 95.5 27.6 94.8 27.3C94.1 27 93.6 26.7 93.2 26.4C92.8 26.1 92.6 25.7 92.4 25.2C92.2 24.8 92.1 24.3 92.1 23.8C92.1 23.3 92.2 22.7 92.4 22.2C92.6 21.8 92.8 21.4 93.2 21C93.6 20.7 94 20.4 94.7 20.2C95.3 20 96.2 19.9 97.1 19.9C97.8 19.9 98.5 20 99.2 20.2C99.9 20.4 100.5 20.7 101 21.1C101.3 21.3 101.6 21.6 101.8 21.9C101.9 21.9 101.9 27.3 101.9 27.3ZM101.7 16L100.8 15.7C99.6 15.3 98.3 15.1 96.8 15.1C95.3 15.1 93.9 15.3 92.7 15.8C91.5 16.2 90.4 16.9 89.5 17.7C88.6 18.5 87.9 19.5 87.5 20.6C87 21.7 86.8 22.9 86.8 24.1C86.8 25.3 87 26.5 87.5 27.6C88 28.7 88.7 29.7 89.6 30.4C90.5 31.2 91.6 31.8 92.9 32.2C94.1 32.6 95.6 32.9 97.1 32.9C98.2 32.9 99.4 32.8 100.8 32.7C101.9 32.6 103.1 32.5 104.2 32.3L107.1 31.8V17.2C107.1 14.1 106.2 11.6 104.4 9.90002C102.6 8.20002 100 7.40002 96.7 7.40002C95.4 7.40002 94.1 7.50002 92.9 7.80002C91.6 8.10002 90.5 8.40003 89.7 8.70003C89.2 8.90003 88.4 9.30002 88 9.50002L90.1 14.2C90.1 14.2 92.7 12.6 96.6 12.5C96.5 12.4 101.6 12.4 101.7 16Z" fill="#EC671B"/>
<path d="M127.3 9.90002C125.5 8.20002 122.9 7.40002 119.6 7.40002C118.3 7.40002 117 7.50002 115.8 7.80002C114.5 8.10002 113.4 8.40003 112.6 8.70003C111.8 9.00003 111.1 9.30003 110.7 9.60003L110.1 10V32.2H115.4V13.2C115.7 13.1 116 13 116.5 12.8C117.3 12.6 118.4 12.5 119.6 12.5C120.4 12.5 121.3 12.6 122.2 12.9C122.9 13.1 123.6 13.6 124.1 14.4C124.7 15.2 124.9 16.5 124.9 18.1V32.2H130.2V17.2C130 14 129.1 11.6 127.3 9.90002Z" fill="#EC671B"/>
<path d="M144.6 18.4C143 19.1 141.2 19.4 139.4 19.3C145.6 18 150.8 13.5 152.9 7.5H148C146 11.4 142.3 14.3 137.8 15V0H132.5V32.1H137.8V20.2C143.3 21.6 147.4 26.4 148 32.2H152.5C152.1 26.4 149.1 21.4 144.6 18.4Z" fill="#EC671B"/>
</svg>
